<?xml version="1.0" standalone="no"?><!DOCTYPE svg PUBLIC "-//W3C//DTD SVG 1.1//EN" "http://www.w3.org/Graphics/SVG/1.1/DTD/svg11.dtd"><svg t="1751526305795" class="icon" viewBox="0 0 1024 1024" version="1.1" xmlns="http://www.w3.org/2000/svg" p-id="5501" data-darkreader-inline-fill="" xmlns:xlink="http://www.w3.org/1999/xlink" width="13" height="13"><path d="M775.671875 90.07226562a158.203125 158.203125 0 0 1 158.203125 158.20312501v268.89257812l-68.5546875-0.05273438V248.27539062A89.6484375 89.6484375 0 0 0 775.671875 158.62695312H248.328125A89.6484375 89.6484375 0 0 0 158.6796875 248.27539062v527.34375A89.6484375 89.6484375 0 0 0 248.328125 865.26757813h36.9140625V933.82226563H248.328125a158.203125 158.203125 0 0 1-158.203125-158.20312501V248.27539062a158.203125 158.203125 0 0 1 158.203125-158.20312499h527.34375z" fill="#d81e06" p-id="5502" data-darkreader-inline-fill="" style="--darkreader-inline-fill: var(--darkreader-background-d81e06, #d41d06);"></path><path d="M125.7734375 343.25h776.35546875v68.5546875H125.7734375z" fill="#d81e06" p-id="5503" data-darkreader-inline-fill="" style="--darkreader-inline-fill: var(--darkreader-background-d81e06, #d41d06);"></path><path d="M218.11132812 217.63671875m39.55078126 0l0 0q39.55078125 0 39.55078125 39.55078125l0 0q0 39.55078125-39.55078125 39.55078125l0 0q-39.55078125 0-39.55078125-39.55078125l0 0q0-39.55078125 39.55078125-39.55078125Z" fill="#d81e06" p-id="5504" data-darkreader-inline-fill="" style="--darkreader-inline-fill: var(--darkreader-text-d81e06, #d41d06);"></path><path d="M349.73632812 217.63671875m39.55078126 0l0 0q39.55078125 0 39.55078125 39.55078125l0 0q0 39.55078125-39.55078125 39.55078125l0 0q-39.55078125 0-39.55078125-39.55078125l0 0q0-39.55078125 39.55078125-39.55078125Z" fill="#d81e06" p-id="5505" data-darkreader-inline-fill="" style="--darkreader-inline-fill: var(--darkreader-text-d81e06, #d41d06);"></path><path d="M481.30859375 217.63671875m39.55078125 0l0 0q39.55078125 0 39.55078125 39.55078125l0 0q0 39.55078125-39.55078125 39.55078125l0 0q-39.55078125 0-39.55078125-39.55078125l0 0q0-39.55078125 39.55078125-39.55078125Z" fill="#d81e06" p-id="5506" data-darkreader-inline-fill="" style="--darkreader-inline-fill: var(--darkreader-text-d81e06, #d41d06);"></path><path d="M333.23046875 601.06835938l5.2734375 5.27343749v132.15234376c0 16.98046875-3.00585938 30.69140625-9.12304688 41.02734374-10.49414063 17.71875001-29.26757813 26.52539063-55.63476562 26.52539063-26.26171875 0-44.45507813-7.11914063-54-21.77929688-9.01757813-13.86914063-13.44726563-32.43164063-13.44726562-55.6875v-4.37695312l5.2734375-5.2734375h37.44140625l5.2734375 5.2734375v4.21875c0.31640625 13.97460938 1.84570313 23.73046875 4.32421875 28.79296875 1.84570313 3.90234375 6.1171875 5.95898438 13.7109375 5.95898437 7.43554688 0 11.70703125-2.21484375 13.7109375-6.69726562 1.42382813-3.00585938 2.26757813-8.91210938 2.26757812-17.40234375V606.44726563l5.2734375-5.27343751h39.65625z m106.20703125-5.48437501c21.09375001 0 39.28710938 5.64257813 54.31640625 16.92773438 15.45117188 11.6015625 23.57226563 28.4765625 24.31054688 50.203125l-5.27343751 5.43164063h-38.07421875l-5.2734375-4.95703126c-0.52734375-9.59765625-4.53515625-16.03125001-12.12890625-19.93359374a44.98242188 44.98242188 0 0 0-20.56640625-4.21875001c-9.28125001 0-16.34765625 1.84570313-21.515625 5.2734375a14.44921875 14.44921875 0 0 0-6.85546875 12.91992188c0 4.8515625 2.00390625 8.17382813 6.38085938 10.65234375 3.26953125 1.84570313 11.1796875 4.37695313 23.30859375 7.27734375l32.6953125 7.85742188c15.02929689 3.5859375 26.52539063 8.4375 34.48828125 14.765625 12.65625001 9.96679689 18.984375 24.41601563 18.984375 42.87304688 0 18.87890625-7.27734375 34.75195313-21.67382813 47.19726562-14.34375001 12.33984375-34.27734375 18.45703125-59.64257812 18.45703125-25.83984375 0-46.40625001-5.95898438-61.59375-18.08789063-15.45117188-12.28710938-23.25585938-29.3203125-23.25585937-50.625l5.27343751-5.2734375h37.86328124l5.22070312 4.53515625c1.0546875 7.75195313 3.11132813 13.39453125 5.90625 16.82226563 5.2734375 6.38085938 14.81835938 9.75585938 29.00390625 9.75585937 8.80664063 0 15.8203125-0.94921875 21.09375-2.79492187 8.96484375-3.1640625 13.078125-8.59570313 13.078125-17.03320313a10.96875001 10.96875001 0 0 0-5.74804687-10.01953125 84.375 84.375 0 0 0-24.2578125-8.27929687l-20.09179688-4.48242188c-20.35546875-4.58789063-34.54101563-9.65039063-42.76757812-15.29296875-14.29101563-9.86132813-21.46289063-25.20703125-21.46289063-45.45703125 0-18.45703125 6.80273438-34.01367188 20.25-46.24804687 13.44726563-12.234375 32.85351563-18.24609375 58.0078125-18.24609375z m192.84960938-0.26367187c28.4765625 0 50.57226563 7.85742188 65.75976562 23.51953125 20.30273438 18.45703125 30.42773437 46.03710938 30.42773437 82.16015625 0 35.4375-10.07226563 62.91210938-30.21679687 81.94921875-15.3984375 15.87304687-37.49414063 23.73046875-65.91796875 23.73046875-28.4765625 0-50.625-7.85742188-65.86523438-23.57226563-20.35546875-19.1953125-30.48046875-46.66992188-30.48046874-82.10742187 0-36.12304688 10.125-63.65039063 30.32226562-81.94921875 15.3984375-15.87304687 37.546875-23.73046875 65.97070313-23.73046875z m-1e-8 44.13867187a40.60546875 40.60546875 0 0 0-33.48632812 15.3984375c-8.49023438 10.546875-12.8671875 25.83984375-12.8671875 46.14257813 0 20.25 4.37695313 35.59570313 12.8671875 46.14257812a40.60546875 40.60546875 0 0 0 33.48632813 15.3984375 40.23632813 40.23632813 0 0 0 33.328125-15.3984375c8.38476563-10.546875 12.65625001-25.83984375 12.65625-46.14257812 0-20.19726563-4.32421875-35.49023438-12.70898438-46.08984375a39.97265625 39.97265625 0 0 0-33.22265625-15.45117188z m162.10546876-38.33789062l4.58789062 2.63671875 65.65429688 115.171875 0.05273437-112.53515625 5.2734375-5.2734375h36.9140625l5.2734375 5.2734375v189.73828125l-5.2734375 5.27343751h-39.60351563l-4.58789062-2.63671876-67.7109375-117.65039063 0.05273438 115.01367188-5.27343751 5.27343751h-36.9140625l-5.2734375-5.27343751V606.39453125l5.2734375-5.2734375h41.5546875z" fill="#d81e06" p-id="5507" data-darkreader-inline-fill="" style="--darkreader-inline-fill: var(--darkreader-background-d81e06, #d41d06);"></path></svg>