<?xml version="1.0" standalone="no"?><!DOCTYPE svg PUBLIC "-//W3C//DTD SVG 1.1//EN" "http://www.w3.org/Graphics/SVG/1.1/DTD/svg11.dtd"><svg t="1751876191946" class="icon" viewBox="0 0 1024 1024" version="1.1" xmlns="http://www.w3.org/2000/svg" p-id="12197" data-darkreader-inline-fill="" data-spm-anchor-id="a313x.search_index.0.i2.43523a81W27DUV" width="256" height="256" xmlns:xlink="http://www.w3.org/1999/xlink"><path d="M174.994487 312.167585l713.52591 0 0-84.674752c0-9.596472-7.338479-16.93495-16.93495-16.93495l-429.018743 0L366.923925 120.238148 22.579934 120.238148c-9.596472 0-16.93495 7.338479-16.93495 16.93495l0 744.00882c0 9.596472 7.338479 16.93495 16.93495 16.93495l40.079383 0L155.237045 329.102536C156.93054 319.506064 165.962514 312.167585 174.994487 312.167585z" fill="#1296db" p-id="12198" data-darkreader-inline-fill="" style="--darkreader-inline-fill: var(--darkreader-background-1296db, #1191d4);" data-spm-anchor-id="a313x.search_index.0.i4.43523a81W27DUV"></path><path d="M624.899669 588.207277c-10.16097 0-18.628445 3.38699-24.273429 10.725469s-9.031974 19.192944-9.031974 35.563396c0 16.370452 2.822492 28.224917 9.031974 35.563396s14.676957 10.725469 24.837927 10.725469c10.725469 0 19.192944-3.38699 25.402426-10.725469s9.031974-19.757442 9.031974-37.821389c0-15.241455-3.38699-26.531422-9.596472-33.869901C644.092613 592.158765 635.625138 588.207277 624.899669 588.207277z" fill="#1296db" p-id="12199" data-darkreader-inline-fill="" style="--darkreader-inline-fill: var(--darkreader-text-1296db, #1191d4);"></path><path d="M998.597574 382.16538 228.057332 382.16538c-9.031974 0-18.063947 7.338479-19.192944 16.370452l-87.497244 483.775083c-1.693495 9.031974 4.515987 16.370452 13.54796 16.370452l770.540243 0c9.031974 0 18.063947-7.338479 19.192944-16.370452l87.497244-483.775083C1013.83903 390.068357 1007.629548 382.16538 998.597574 382.16538zM348.29548 641.83462c0 18.628445-1.693495 32.740904-5.080485 42.337376-3.38699 9.596472-10.16097 18.063947-19.757442 24.837927-10.16097 6.77398-22.579934 10.16097-38.385888 10.16097-16.370452 0-29.353914-2.257993-38.385888-6.77398s-16.370452-10.725469-20.886439-19.757442c-5.080485-8.467475-7.902977-19.192944-9.031974-31.611907l48.546858-6.77398c0 7.338479 0.564498 12.418964 1.693495 15.805954s3.38699 6.209482 6.209482 8.467475c1.693495 1.693495 4.515987 2.257993 8.467475 2.257993 5.644983 0 9.596472-2.257993 12.418964-6.209482 2.822492-3.951488 3.951488-11.289967 3.951488-21.450937L298.055127 553.208379l50.804851 0L348.859978 641.83462zM512.564498 692.639471c-5.644983 9.031974-14.112459 15.805954-24.273429 20.32194s-23.708931 6.77398-39.514884 6.77398c-27.660419 0-46.853363-5.080485-57.578831-15.805954s-16.93495-24.273429-18.063947-40.643881l47.982359-2.822492c1.128997 7.902977 3.38699 13.54796 6.209482 18.063947 5.080485 6.77398 12.418964 10.16097 22.579934 10.16097 7.338479 0 12.983462-1.693495 16.93495-5.080485s5.644983-7.338479 5.644983-11.854465c0-4.515987-1.693495-7.902977-5.644983-11.289967-3.951488-3.38699-12.418964-6.77398-25.966924-9.596472-22.015436-5.080485-37.821389-11.854465-47.417861-19.757442-9.596472-8.467475-14.112459-18.628445-14.112459-31.611907 0-8.467475 2.257993-16.370452 7.338479-23.708931 5.080485-7.338479 12.418964-13.54796 22.015436-17.499449 9.596472-4.515987 23.144432-6.209482 40.079383-6.209482 20.886439 0 36.692393 3.951488 47.982359 11.854465 10.725469 7.902977 17.499449 20.32194 19.757442 37.256891l-47.417861 2.822492c-1.128997-7.338479-3.951488-12.983462-7.902977-15.805954-3.951488-3.38699-9.596472-5.080485-16.93495-5.080485-5.644983 0-10.16097 1.128997-13.54796 3.951488s-4.515987 5.644983-4.515987 9.031974c0 2.822492 1.128997 5.080485 3.951488 6.77398 2.257993 2.257993 7.902977 3.951488 16.93495 6.209482 22.015436 4.515987 37.821389 9.596472 47.417861 14.676957 9.596472 5.080485 16.370452 10.725469 20.886439 18.063947 4.515987 7.338479 6.77398 15.241455 6.77398 24.273429C521.596472 674.011025 518.77398 683.607497 512.564498 692.639471zM700.542448 680.785006c-6.209482 12.418964-15.805954 22.015436-27.660419 28.789416-12.418964 6.77398-27.095921 10.16097-45.724366 10.16097-18.628445 0-33.869901-2.822492-45.724366-9.031974-11.854465-5.644983-22.015436-15.241455-29.353914-27.660419-7.338479-12.983462-11.289967-28.789416-11.289967-47.982359 0-26.531422 7.338479-47.417861 22.579934-62.659316 14.676957-14.676957 35.563396-22.579934 62.094818-22.579934 27.095921 0 47.982359 7.338479 63.223815 22.015436 14.676957 14.676957 22.015436 34.998897 22.015436 61.53032C710.13892 652.560088 706.751929 668.366042 700.542448 680.785006zM894.16538 716.348401 846.747519 716.348401 785.2172 626.593164l0 89.755237-47.417861 0L737.799338 553.208379l47.417861 0 61.53032 90.319735L846.747519 553.208379l47.417861 0L894.16538 716.348401z" fill="#1296db" p-id="12200" data-darkreader-inline-fill="" style="--darkreader-inline-fill: var(--darkreader-background-1296db, #1191d4);"></path></svg>